<?xml version="1.0" encoding="UTF-8"?> <svg xmlns="http://www.w3.org/2000/svg" xmlns:xlink="http://www.w3.org/1999/xlink" width="468" height="468" viewBox="0 0 468 468"><defs><clipPath id="clip-path"><rect id="Rectangle_4530" data-name="Rectangle 4530" width="468" height="468" fill="none"></rect></clipPath><filter id="Path_68474" x="-28.856" y="3.143" width="295.856" height="295.856" filterUnits="userSpaceOnUse"><feOffset dx="-16" dy="16"></feOffset><feGaussianBlur stdDeviation="16" result="blur"></feGaussianBlur><feFlood flood-color="#05af97" flood-opacity="0.322"></feFlood><feComposite operator="in" in2="blur"></feComposite><feComposite in="SourceGraphic"></feComposite></filter></defs><g id="cirkel-acquire" transform="translate(21365 14808)"><g id="Group_11076" data-name="Group 11076" transform="translate(-21365 -14808)"><g id="Group_11075" data-name="Group 11075" transform="translate(0 0)"><g id="Group_11066" data-name="Group 11066"><g id="Group_11065" data-name="Group 11065" clip-path="url(#clip-path)"><path id="Path_68473" data-name="Path 68473" d="M417.022,64.412v166.9a30.96,30.96,0,0,1,30.96,30.96h166.9C614.878,153,526.3,64.412,417.022,64.412Z" transform="translate(-183.022 -28.269)" fill="#e8f7f5" stroke="#669d88" stroke-miterlimit="10" stroke-width="2"></path><path id="Path_68475" data-name="Path 68475" d="M262.269,614.878v-166.9a30.96,30.96,0,0,1-30.96-30.96H64.413C64.413,526.3,153,614.878,262.269,614.878Z" transform="translate(-28.27 -183.022)" fill="#e8f7f5" stroke="#669d88" stroke-miterlimit="10" stroke-width="2"></path><path id="Path_68476" data-name="Path 68476" d="M614.878,417.022h-166.9a30.96,30.96,0,0,1-30.96,30.96v166.9C526.3,614.878,614.878,526.3,614.878,417.022Z" transform="translate(-183.022 -183.022)" fill="#e8f7f5" stroke="#669d88" stroke-miterlimit="10" stroke-width="2"></path><g id="Group_11067" data-name="Group 11067" transform="translate(292.887 99.356)"><path id="Path_68484" data-name="Path 68484" d="M531.981,177.067l7.674,4.549a12.54,12.54,0,0,1,4.241,3.932,9.143,9.143,0,0,1,1.53,4.9,10.473,10.473,0,0,1-5.264,8.881,9.137,9.137,0,0,1-5.035,1.011,12.528,12.528,0,0,1-5.485-1.833l-7.675-4.549Zm-.63,18.119a6.6,6.6,0,0,0,4.88.984,6.516,6.516,0,0,0,4.535-7.651,6.6,6.6,0,0,0-3.206-3.808l-3.572-2.117-6.209,10.474Z" transform="translate(-521.967 -177.067)" fill="#005c38"></path><path id="Path_68485" data-name="Path 68485" d="M572.555,225.03l-8.844-7.223a3.553,3.553,0,0,0-.272,2.639,4.833,4.833,0,0,0,1.7,2.441,5.779,5.779,0,0,0,1.84,1.05,5.053,5.053,0,0,0,2.016.215l.206,3.429a7.828,7.828,0,0,1-6.368-2.05,9.848,9.848,0,0,1-2.868-3.629,7.29,7.29,0,0,1-.6-4.057,7.606,7.606,0,0,1,1.713-3.781,7.714,7.714,0,0,1,3.344-2.431,7.372,7.372,0,0,1,4-.323,8.946,8.946,0,0,1,6.317,5.106,6.966,6.966,0,0,1,.453,3.9,8.15,8.15,0,0,1-1.825,3.853q-.053.066-.81.86m-4.86-10.237a3.584,3.584,0,0,0-2.412,1l5.758,4.7a3.62,3.62,0,0,0,.49-2.552,3.691,3.691,0,0,0-1.371-2.225,3.766,3.766,0,0,0-2.466-.928" transform="translate(-538.35 -192.035)" fill="#005c38"></path><path id="Path_68486" data-name="Path 68486" d="M594.977,239a6.965,6.965,0,0,1-.145,3.836,8.979,8.979,0,0,1-5.972,5.567,6.949,6.949,0,0,1-3.837-.125,7.693,7.693,0,0,1-3.32-2.141,5.828,5.828,0,0,1-1.765-4.568l-5.151,4.8-2.985-3.2,15.022-14,2.85,3.058-1.272,1.187a5.8,5.8,0,0,1,4.67,2.129,7.7,7.7,0,0,1,1.9,3.461m-8.448,5.381a4.83,4.83,0,0,0,4.454-4.151,3.927,3.927,0,0,0-3.768-4.043,4.83,4.83,0,0,0-4.454,4.151,3.93,3.93,0,0,0,3.769,4.043" transform="translate(-543.839 -199.934)" fill="#005c38"></path><rect id="Rectangle_4529" data-name="Rectangle 4529" width="20.818" height="4.377" transform="matrix(0.797, -0.604, 0.604, 0.797, 44.476, 53.641)" fill="#005c38"></rect><path id="Path_68487" data-name="Path 68487" d="M613.793,281.24a7.4,7.4,0,0,1,.807-3.968,8.083,8.083,0,0,1,6.839-4.2,7.411,7.411,0,0,1,3.9,1.078,9.657,9.657,0,0,1,4.467,7.282,7.43,7.43,0,0,1-.815,3.956,8.082,8.082,0,0,1-6.839,4.2,7.433,7.433,0,0,1-3.9-1.066,9.656,9.656,0,0,1-4.468-7.282m6.863,4.051a4.829,4.829,0,0,0,5.189-3.184,3.644,3.644,0,0,0-.477-2.95,3.689,3.689,0,0,0-2.421-1.773,4.781,4.781,0,0,0-5.189,3.184,3.689,3.689,0,0,0,.484,2.962,3.646,3.646,0,0,0,2.414,1.761" transform="translate(-562.259 -219.203)" fill="#005c38"></path><path id="Path_68488" data-name="Path 68488" d="M641.718,311.534l-17.406.374a7.882,7.882,0,0,1-4.406-.828,6.292,6.292,0,0,1-2.489-2.924,7.668,7.668,0,0,1-.625-2.273,5.145,5.145,0,0,1,.148-2.129l3.5.177a3.757,3.757,0,0,0-.161,1.349,3.625,3.625,0,0,0,.306,1.293,2.315,2.315,0,0,0,1,1.151,3.7,3.7,0,0,0,1.733.327l.151-.006,11.172-12.213,1.858,4.118-7.593,8.073,11.088-.324Z" transform="translate(-563.563 -229.19)" fill="#005c38"></path></g><path id="Path_68503" data-name="Path 68503" d="M527.213,281.752l8.679,8.679a3.683,3.683,0,0,1,0,5.208l-15.623,15.623a3.683,3.683,0,0,1-5.208,0l-8.679-8.679a3.684,3.684,0,0,1,0-5.208l15.623-15.623a3.683,3.683,0,0,1,5.208,0M508.118,299.11a1.23,1.23,0,0,0,0,1.736l8.679,8.679a1.231,1.231,0,0,0,1.736,0L534.157,293.9a1.231,1.231,0,0,0,0-1.736l-8.679-8.679a1.232,1.232,0,0,0-1.736,0Zm4.34-39.057L500.307,272.2l13.887,13.887-1.736,1.736L498.571,273.94l-1.736-1.736-1.633-1.633a3.433,3.433,0,0,0,.591,4.063l14.928,14.929-1.736,1.736L494.058,276.37a5.893,5.893,0,0,1,0-8.332,1.473,1.473,0,0,1,2.083,0l2.43,2.43,12.151-12.152a4.915,4.915,0,0,1,6.944,0l17.359,17.359a4.915,4.915,0,0,1,0,6.944l-1.736,1.736-1.736-1.736,1.736-1.736a2.452,2.452,0,0,0,0-3.472L515.93,260.053a2.452,2.452,0,0,0-3.472,0" transform="translate(-216.075 -112.74)" fill="#005c38"></path><g id="Group_11070" data-name="Group 11070" transform="translate(272.297 279.196)"><g id="Group_11069" data-name="Group 11069" transform="translate(11.177)"><path id="Path_68496" data-name="Path 68496" d="M622.853,513.777l10.7,4.937-6.37-9.33.862-1.858,11-1.234-10.458-4.857,1.8-3.868,17.813,8.271-1.583,3.409-14.165,1.527,8.021,11.705-1.572,3.384-17.836-8.22Z" transform="translate(-556.042 -497.568)" fill="#005c38"></path><path id="Path_68497" data-name="Path 68497" d="M616.3,556.454a6.391,6.391,0,0,1-5.222-1.277l-7.123-4.842,2.3-3.387L607.808,548q-1.047-2.2.846-4.988a7.15,7.15,0,0,1,2.183-2.163,4.5,4.5,0,0,1,2.443-.7,4.236,4.236,0,0,1,2.327.768,3.932,3.932,0,0,1,1.847,3.172,8.077,8.077,0,0,1-1.755,4.728l-1.956,2.877a2.79,2.79,0,0,0,2.311.518,3.83,3.83,0,0,0,2.1-1.724,7.611,7.611,0,0,0,1.019-2.174,6.248,6.248,0,0,0,.265-2.211l3.412.42a9.482,9.482,0,0,1-.55,3.205,13.243,13.243,0,0,1-1.6,3.2,7.86,7.86,0,0,1-4.408,3.516m-6.511-8.938a2.841,2.841,0,0,0,.571,1.881l1.276.867,1.688-2.482q1.514-2.228.052-3.221a1.573,1.573,0,0,0-1.473-.2,2.969,2.969,0,0,0-1.423,1.22,3.806,3.806,0,0,0-.69,1.939" transform="translate(-548.535 -516.258)" fill="#005c38"></path><path id="Path_68498" data-name="Path 68498" d="M593.294,582.375a6.678,6.678,0,0,1-4.869-2.051l-6.432-5.772,2.923-3.257,5.931,5.322a3.935,3.935,0,0,0,2.519,1.2,2.882,2.882,0,0,0,2.176-1.1,3.484,3.484,0,0,0,1-2.647,4.238,4.238,0,0,0-1.609-2.764l-5.555-4.985,2.924-3.257,11.234,10.081-2.792,3.111-1.315-1.181a5.819,5.819,0,0,1-.346,2.592,7.539,7.539,0,0,1-1.507,2.455,6.212,6.212,0,0,1-4.279,2.248" transform="translate(-538.898 -526.315)" fill="#005c38"></path><path id="Path_68499" data-name="Path 68499" d="M569.782,606.332a6.391,6.391,0,0,1-4.7-2.617l-5.583-6.558,3.119-2.655,1.218,1.431q-.423-2.4,2.14-4.585a7.141,7.141,0,0,1,2.678-1.507,4.5,4.5,0,0,1,2.54-.025,4.238,4.238,0,0,1,2.041,1.359,3.931,3.931,0,0,1,.939,3.549,8.079,8.079,0,0,1-2.946,4.092l-2.649,2.255a2.79,2.79,0,0,0,2.09,1.113,3.831,3.831,0,0,0,2.487-1.1,7.63,7.63,0,0,0,1.559-1.825,6.274,6.274,0,0,0,.842-2.062l3.179,1.31a9.481,9.481,0,0,1-1.381,2.944,13.248,13.248,0,0,1-2.393,2.664,7.862,7.862,0,0,1-5.184,2.221m-3.906-10.345a2.844,2.844,0,0,0,.051,1.964l1,1.175,2.286-1.946q2.05-1.746.905-3.092a1.574,1.574,0,0,0-1.366-.587,2.967,2.967,0,0,0-1.7.8,3.807,3.807,0,0,0-1.181,1.687" transform="translate(-529.028 -537.979)" fill="#005c38"></path><path id="Path_68500" data-name="Path 68500" d="M539.068,625.426,532.3,614.835q-2.236-3.5-1.5-6.365t4.231-5.1a15.83,15.83,0,0,1,3.786-1.787,9.07,9.07,0,0,1,3.573-.452l.227,3.584a7.173,7.173,0,0,0-2.705.247,9.588,9.588,0,0,0-2.708,1.182,4.734,4.734,0,0,0-2.274,2.668,4.082,4.082,0,0,0,.759,3.194l.347.544a6.125,6.125,0,0,1,3.007-4.152,8,8,0,0,1,3.694-1.279,6.946,6.946,0,0,1,3.688.69,7.713,7.713,0,0,1,4.11,6.43,6.949,6.949,0,0,1-.922,3.636,8.015,8.015,0,0,1-2.713,2.816,5.99,5.99,0,0,1-5.371.869l1.043,1.632Zm-.676-11.139a3.793,3.793,0,0,0,2.886,4.515,4.031,4.031,0,0,0,2.951-.671,4.08,4.08,0,0,0,1.86-2.4,3.759,3.759,0,0,0-2.886-4.515,4.079,4.079,0,0,0-2.963.678,4.029,4.029,0,0,0-1.848,2.4" transform="translate(-516.349 -543.005)" fill="#005c38"></path><path id="Path_68501" data-name="Path 68501" d="M506.011,638.024l10.374-4.772a3.55,3.55,0,0,0-2.252-1.4,4.827,4.827,0,0,0-2.94.457,5.782,5.782,0,0,0-1.752,1.192,5.064,5.064,0,0,0-1.079,1.716l-3.171-1.321a7.827,7.827,0,0,1,4.639-4.82,9.843,9.843,0,0,1,4.52-.983,7.3,7.3,0,0,1,3.908,1.244,7.615,7.615,0,0,1,2.645,3.2,7.716,7.716,0,0,1,.715,4.072,7.372,7.372,0,0,1-1.465,3.731,8.945,8.945,0,0,1-7.361,3.432,6.97,6.97,0,0,1-3.705-1.307,8.157,8.157,0,0,1-2.66-3.332q-.035-.077-.416-1.105m11.332.13a3.584,3.584,0,0,0,.16-2.606l-6.754,3.107a3.621,3.621,0,0,0,2.077,1.561,3.692,3.692,0,0,0,2.6-.254,3.767,3.767,0,0,0,1.917-1.808" transform="translate(-505.191 -554.848)" fill="#005c38"></path></g><path id="Path_68504" data-name="Path 68504" d="M505.527,510.64a12.661,12.661,0,0,1,1.72,1.448,13.328,13.328,0,0,1,1.443,1.714,1.246,1.246,0,0,1,.065,1.313L507.686,517a10.564,10.564,0,0,1,.824,3.07l1.866,1.1a1.226,1.226,0,0,1,.6,1.166,12.867,12.867,0,0,1-.331,1.98l-.006.027-.119.434-.006.027a13.305,13.305,0,0,1-.7,1.861,1.232,1.232,0,0,1-1.1.71l-2.165.016a10.878,10.878,0,0,1-1.036,1.21,9.917,9.917,0,0,1-1.21,1.036l-.016,2.164a1.219,1.219,0,0,1-.711,1.1,13.836,13.836,0,0,1-1.86.7l-.027.005-.439.114-.027.006a12.945,12.945,0,0,1-1.98.331,1.243,1.243,0,0,1-1.166-.6l-1.1-1.866a10.511,10.511,0,0,1-3.065-.819l-1.883,1.069a1.212,1.212,0,0,1-1.312-.065,12.63,12.63,0,0,1-1.714-1.443,13.54,13.54,0,0,1-1.449-1.719,1.248,1.248,0,0,1-.065-1.313l1.069-1.882a10.391,10.391,0,0,1-.819-3.065l-1.866-1.1a1.23,1.23,0,0,1-.6-1.167,12.527,12.527,0,0,1,.337-2.007l.005-.016.1-.385.006-.016a12.716,12.716,0,0,1,.705-1.888,1.233,1.233,0,0,1,1.1-.71l2.164-.016a10.919,10.919,0,0,1,1.036-1.21,9.9,9.9,0,0,1,1.21-1.036l.016-2.165a1.217,1.217,0,0,1,.71-1.1,12.8,12.8,0,0,1,1.888-.705l.016-.006.385-.1.016-.006a13.451,13.451,0,0,1,2.007-.336,1.226,1.226,0,0,1,1.166.6l1.1,1.866a10.512,10.512,0,0,1,3.065.819l1.91-1.085a1.213,1.213,0,0,1,1.313.065Zm-.8,2.473-1.736.988a1.214,1.214,0,0,1-1.172.021,8.063,8.063,0,0,0-3.336-.9,1.221,1.221,0,0,1-1.009-.607l-1.009-1.725q-.432.073-.862.179l-.358.1c-.277.081-.548.168-.814.272l-.011,2a1.227,1.227,0,0,1-.57,1.026,8.183,8.183,0,0,0-2.441,2.441,1.228,1.228,0,0,1-1.026.57l-2,.011c-.1.266-.19.537-.272.814l-.1.369q-.105.431-.179.863l1.72,1.014a1.221,1.221,0,0,1,.608,1.009,7.883,7.883,0,0,0,.895,3.336,1.215,1.215,0,0,1-.022,1.172l-.987,1.735a9.455,9.455,0,0,0,.71.787,9.767,9.767,0,0,0,.787.71l1.736-.987a1.216,1.216,0,0,1,1.172-.022,7.983,7.983,0,0,0,3.336.895,1.22,1.22,0,0,1,1.009.608l1.009,1.725c.282-.043.558-.1.835-.173l.412-.108c.266-.081.531-.163.787-.266l.011-2a1.228,1.228,0,0,1,.57-1.025,8.263,8.263,0,0,0,2.452-2.452,1.226,1.226,0,0,1,1.025-.57l2-.011c.1-.26.184-.521.265-.787l.109-.412c.07-.277.125-.559.173-.836l-1.725-1.009a1.221,1.221,0,0,1-.608-1.009,7.9,7.9,0,0,0-.9-3.336,1.214,1.214,0,0,1,.022-1.172l.987-1.736a10.4,10.4,0,0,0-1.5-1.5Zm-9.628,5.051a4.3,4.3,0,1,1-1.112,4.149,4.3,4.3,0,0,1,1.112-4.149m1.736,4.34a1.841,1.841,0,1,0,0-2.6,1.841,1.841,0,0,0,0,2.6m37.9-.852a13.576,13.576,0,0,1-1.448,1.72,13.393,13.393,0,0,1-1.714,1.443,1.247,1.247,0,0,1-1.313.065l-1.882-1.068a10.582,10.582,0,0,1-3.07.824l-1.1,1.866a1.23,1.23,0,0,1-1.167.6,12.921,12.921,0,0,1-1.98-.331l-.027-.006-.434-.119-.027-.006a13.282,13.282,0,0,1-1.861-.7,1.234,1.234,0,0,1-.711-1.1l-.016-2.164a10.99,10.99,0,0,1-1.21-1.036,9.961,9.961,0,0,1-1.036-1.21l-2.164-.016a1.219,1.219,0,0,1-1.1-.711,13.693,13.693,0,0,1-.7-1.861l-.006-.027-.114-.439-.005-.027a12.882,12.882,0,0,1-.331-1.98,1.226,1.226,0,0,1,.6-1.166l1.866-1.1a10.528,10.528,0,0,1,.819-3.065l-1.058-1.872a1.213,1.213,0,0,1,.065-1.312,12.647,12.647,0,0,1,1.443-1.714,13.468,13.468,0,0,1,1.719-1.448,1.246,1.246,0,0,1,1.313-.065l1.883,1.068a10.4,10.4,0,0,1,3.065-.819l1.1-1.866a1.226,1.226,0,0,1,1.166-.6,12.468,12.468,0,0,1,2.007.336l.016.006.385.1.016.006a12.771,12.771,0,0,1,1.888.705,1.233,1.233,0,0,1,.71,1.1l.016,2.165a11.085,11.085,0,0,1,1.21,1.046,9.952,9.952,0,0,1,1.036,1.21l2.17.011a1.217,1.217,0,0,1,1.1.71,12.836,12.836,0,0,1,.705,1.888l.005.016.1.385.006.016a12.854,12.854,0,0,1,.336,2.018,1.228,1.228,0,0,1-.6,1.167l-1.866,1.1a10.527,10.527,0,0,1-.819,3.065l1.068,1.883a1.213,1.213,0,0,1-.065,1.313Zm-2.474-.8-.987-1.736a1.217,1.217,0,0,1-.022-1.172,8.045,8.045,0,0,0,.9-3.336,1.22,1.22,0,0,1,.608-1.009l1.72-1q-.073-.431-.179-.862l-.1-.358c-.081-.277-.168-.548-.271-.814l-2-.011a1.226,1.226,0,0,1-1.025-.57,7.608,7.608,0,0,0-1.091-1.362,7.922,7.922,0,0,0-1.351-1.09,1.227,1.227,0,0,1-.57-1.025l-.016-2c-.266-.1-.537-.19-.814-.271l-.369-.1q-.432-.106-.863-.179l-1,1.731a1.221,1.221,0,0,1-1.009.608,7.887,7.887,0,0,0-3.336.895,1.216,1.216,0,0,1-1.172-.022l-1.736-.987a9.464,9.464,0,0,0-.787.71,9.659,9.659,0,0,0-.711.787l.988,1.736a1.217,1.217,0,0,1,.021,1.172,8.062,8.062,0,0,0-.895,3.336,1.221,1.221,0,0,1-.607,1.009l-1.725,1.009c.044.282.1.559.174.835l.108.412c.081.266.163.531.266.787l2,.011a1.227,1.227,0,0,1,1.026.569,7.988,7.988,0,0,0,1.1,1.356,8.073,8.073,0,0,0,1.356,1.1,1.224,1.224,0,0,1,.57,1.025l.011,2c.26.1.521.184.786.265l.412.109c.277.07.559.125.836.173l1.02-1.736a1.222,1.222,0,0,1,1.009-.607,7.893,7.893,0,0,0,3.336-.895,1.215,1.215,0,0,1,1.172.021l1.736.988a10.459,10.459,0,0,0,1.5-1.5Zm-5.05-9.629a4.3,4.3,0,1,1-4.15-1.112,4.3,4.3,0,0,1,4.15,1.112m-4.34,1.736a1.841,1.841,0,1,0,2.6,0,1.841,1.841,0,0,0-2.6,0" transform="translate(-485.273 -499.254)" fill="#005c38"></path></g><g id="Group_11072" data-name="Group 11072" transform="translate(96.896 273.811)"><g id="Group_11071" data-name="Group 11071" transform="translate(0 7.539)"><path id="Path_68489" data-name="Path 68489" d="M301.348,623.327l1.07,6.567.2.1,3.573,1.7,2.349-4.94,4.1,1.953-8.437,17.734-7.677-3.652a10.92,10.92,0,0,1-3.718-2.732,6.5,6.5,0,0,1-.922-7.367,6.4,6.4,0,0,1,6.312-3.864l-1.266-7.593Zm-5.428,14.086a4.777,4.777,0,0,0,2.432,2.136l3.345,1.591,2.941-6.182-3.344-1.591a4.722,4.722,0,0,0-3.2-.528,3.541,3.541,0,0,0-2.176,4.573" transform="translate(-224.676 -553.994)" fill="#005c38"></path><path id="Path_68490" data-name="Path 68490" d="M268.35,611.427l9.519,6.307a3.552,3.552,0,0,0,.008-2.654,4.828,4.828,0,0,0-1.936-2.259A5.782,5.782,0,0,0,274,611.96a5.061,5.061,0,0,0-2.027-.014l-.547-3.391a7.826,7.826,0,0,1,6.54,1.406,9.852,9.852,0,0,1,3.216,3.325,7.292,7.292,0,0,1,1,3.977,7.607,7.607,0,0,1-1.327,3.933,7.721,7.721,0,0,1-3.085,2.752,7.373,7.373,0,0,1-3.943.719,8.945,8.945,0,0,1-6.794-4.451,6.964,6.964,0,0,1-.84-3.838,8.156,8.156,0,0,1,1.432-4.015q.046-.07.721-.936m5.856,9.7a3.583,3.583,0,0,0,2.3-1.236l-6.2-4.106a3.624,3.624,0,0,0-.234,2.588,3.691,3.691,0,0,0,1.586,2.077,3.768,3.768,0,0,0,2.546.677" transform="translate(-213.718 -548.328)" fill="#005c38"></path><path id="Path_68491" data-name="Path 68491" d="M243.884,607.362,240.9,604.9l2.142-2.6,2.9,2.393,7.249-8.787,3.376,2.785-7.249,8.787,1.8,1.482-2.142,2.6-1.8-1.482-.429.52a5.505,5.505,0,0,1-3.786,2.187,5.853,5.853,0,0,1-4.286-1.572,8.043,8.043,0,0,1-1.305-1.349,4.536,4.536,0,0,1-.752-1.4l2.9-1.714a3,3,0,0,0,1.024,1.536q1.537,1.268,2.93-.421Z" transform="translate(-200.741 -542.88)" fill="#005c38"></path><path id="Path_68492" data-name="Path 68492" d="M227.254,590.279a7.859,7.859,0,0,1-2.561-1.788l2.87-2.843q.474.558.651.737a4.015,4.015,0,0,0,2.821,1.352,4.252,4.252,0,0,0,2.992-1.465l5.062-5.015,3.08,3.109L231.448,594.99l-2.943-2.969,1.415-1.4a4.864,4.864,0,0,1-2.666-.339" transform="translate(-195.509 -536.451)" fill="#005c38"></path><path id="Path_68493" data-name="Path 68493" d="M213.328,557.556l7.124,8.924a3.553,3.553,0,0,0,.822-2.523,4.83,4.83,0,0,0-1.15-2.744,5.791,5.791,0,0,0-1.578-1.415,5.068,5.068,0,0,0-1.925-.635l.52-3.4a7.826,7.826,0,0,1,5.794,3.345,9.842,9.842,0,0,1,2.04,4.151,7.3,7.3,0,0,1-.269,4.092,7.617,7.617,0,0,1-2.47,3.336,7.715,7.715,0,0,1-3.781,1.672,7.373,7.373,0,0,1-3.973-.526,8.949,8.949,0,0,1-5.1-6.321,6.976,6.976,0,0,1,.379-3.91,8.163,8.163,0,0,1,2.6-3.382q.066-.053.974-.669m2.6,11.031a3.584,3.584,0,0,0,2.568-.471l-4.639-5.81a3.621,3.621,0,0,0-1.017,2.391,3.69,3.69,0,0,0,.871,2.463,3.77,3.77,0,0,0,2.216,1.426" transform="translate(-188.735 -525.264)" fill="#005c38"></path><path id="Path_68494" data-name="Path 68494" d="M207.92,540.41a9.589,9.589,0,0,1,.516,3.046l-3.44.413a9.16,9.16,0,0,0-.389-2.629,10.229,10.229,0,0,0-1.131-2.6q-1.461-2.363-2.631-1.639a.974.974,0,0,0-.389,1.131,11.276,11.276,0,0,0,.82,2.232,22.357,22.357,0,0,1,1.06,2.94,4.736,4.736,0,0,1,0,2.457,3.671,3.671,0,0,1-1.778,2.14,4.13,4.13,0,0,1-2.595.632,5.328,5.328,0,0,1-2.737-1.144,10.316,10.316,0,0,1-2.5-2.861,14.7,14.7,0,0,1-1.378-2.892,8.941,8.941,0,0,1-.557-2.74l3.416-.4a8.715,8.715,0,0,0,1.334,4.289,4.43,4.43,0,0,0,1.441,1.582,1.154,1.154,0,0,0,1.228.065,1,1,0,0,0,.437-1.16,13.4,13.4,0,0,0-.816-2.333,25.876,25.876,0,0,1-1.034-2.923,4.552,4.552,0,0,1,.008-2.413,3.625,3.625,0,0,1,1.737-2.1,3.987,3.987,0,0,1,2.566-.6,5.376,5.376,0,0,1,2.735,1.195,10.934,10.934,0,0,1,2.528,2.939,14.638,14.638,0,0,1,1.54,3.369" transform="translate(-180.634 -515.222)" fill="#005c38"></path><path id="Path_68495" data-name="Path 68495" d="M175.348,508.632a6.676,6.676,0,0,1,3.828-3.642l7.863-3.584,1.816,3.982-7.25,3.3a3.939,3.939,0,0,0-2.112,1.826,2.882,2.882,0,0,0,.139,2.435,3.481,3.481,0,0,0,2.026,1.975,4.238,4.238,0,0,0,3.177-.369l6.79-3.1,1.816,3.983L174.5,524.082l-1.816-3.982,6.637-3.026a5.814,5.814,0,0,1-2.086-1.362,7.608,7.608,0,0,1-1.539-2.259,6.214,6.214,0,0,1-.348-4.821" transform="translate(-172.683 -501.406)" fill="#005c38"></path></g><path id="Path_68505" data-name="Path 68505" d="M278.577,528.715a6.331,6.331,0,0,1-7.561-7.561l2.872-12.313-3.882,2.535a1.365,1.365,0,0,1-1.883-.41,1.338,1.338,0,0,1,.37-1.875l6.784-4.431a1.328,1.328,0,0,1,1.1-.162,1.368,1.368,0,0,1,.866.712l3.74,7.351a1.332,1.332,0,0,1-.587,1.813,1.373,1.373,0,0,1-1.826-.626l-2.066-4.062-2.838,12.133a3.553,3.553,0,0,0,4.248,4.247l4.928-1.154a1.4,1.4,0,0,1,1.65,1.008,1.327,1.327,0,0,1-.979,1.635Zm16.773-9.674-2.269,3.482,14.073-3.285a2.423,2.423,0,0,0,1.152-.63,2.5,2.5,0,0,0-.02-3.548l-5.018-5.018a1.344,1.344,0,1,1,1.9-1.9l5.018,5.018a5.212,5.212,0,0,1,.048,7.4,5.137,5.137,0,0,1-2.4,1.325L293.2,525.3l4.527,2.306a1.38,1.38,0,0,1,.626,1.825,1.34,1.34,0,0,1-1.819.581l-7.352-3.739a1.375,1.375,0,0,1-.549-1.963l4.431-6.785a1.344,1.344,0,0,1,1.875-.37,1.376,1.376,0,0,1,.41,1.883m-18.191-18.215a1.394,1.394,0,0,1-1.008-1.65l1.7-7.282a5.047,5.047,0,0,1,1.325-2.4,5.213,5.213,0,0,1,7.4.048l11.194,11.195-.319-4.6a1.324,1.324,0,0,1,1.264-1.421,1.393,1.393,0,0,1,1.449,1.294l.566,8.171a1.334,1.334,0,0,1-.385,1.04,1.353,1.353,0,0,1-1.041.385l-8.17-.567a1.393,1.393,0,0,1-1.294-1.448,1.324,1.324,0,0,1,1.422-1.264l4.6.313-11.2-11.2a2.5,2.5,0,0,0-3.542-.025,2.349,2.349,0,0,0-.631,1.152l-1.7,7.282a1.324,1.324,0,0,1-1.635.979" transform="translate(-214.467 -487.971)" fill="#005c38"></path></g><g id="Group_11074" data-name="Group 11074" transform="translate(14.864 0)"><path id="Path_68506" data-name="Path 68506" d="M229.525,19.407A223.562,223.562,0,0,0,26.489,197.437" transform="translate(-26.489 -8.517)" fill="none" stroke="#44bfac" stroke-miterlimit="10" stroke-width="4"></path><path id="Path_68507" data-name="Path 68507" d="M381.629,0l19.86,10.319L382.624,22.361Z" transform="translate(-182.352 0)" fill="#44bfac"></path></g><path id="Path_68508" data-name="Path 68508" d="M675.391,229.526A223.561,223.561,0,0,0,497.36,26.49" transform="translate(-218.281 -11.626)" fill="none" stroke="#44bfac" stroke-miterlimit="10" stroke-width="4"></path><path id="Path_68509" data-name="Path 68509" d="M816.554,381.629l-10.319,19.86-12.042-18.865Z" transform="translate(-348.555 -167.489)" fill="#44bfac"></path><path id="Path_68510" data-name="Path 68510" d="M445.715,675.391a223.566,223.566,0,0,0,203.036-178.03" transform="translate(-195.615 -218.281)" fill="none" stroke="#44bfac" stroke-miterlimit="10" stroke-width="4"></path><path id="Path_68511" data-name="Path 68511" d="M436.882,816.554l-19.86-10.319,18.865-12.042Z" transform="translate(-183.022 -348.555)" fill="#44bfac"></path><path id="Path_68512" data-name="Path 68512" d="M19.407,445.715A223.562,223.562,0,0,0,197.438,648.751" transform="translate(-8.517 -195.615)" fill="none" stroke="#44bfac" stroke-miterlimit="10" stroke-width="4"></path><path id="Path_68513" data-name="Path 68513" d="M0,436.882l10.319-19.86,12.042,18.865Z" transform="translate(0 -183.022)" fill="#44bfac"></path><g id="Group_11618" data-name="Group 11618"><g transform="matrix(1, 0, 0, 1, 0, 0)" filter="url(#Path_68474)"><path id="Path_68474-2" data-name="Path 68474" d="M64.413,262.269h166.9a30.96,30.96,0,0,1,30.96-30.96V64.413C153,64.413,64.413,153,64.413,262.269Z" transform="translate(-28.27 -28.27)" fill="#005c38" stroke="#005c38" stroke-miterlimit="10" stroke-width="2"></path></g><g id="Group_11068" data-name="Group 11068" transform="translate(98.023 98.706)"><path id="Path_68477" data-name="Path 68477" d="M191.516,297.81l-4.09,8.149,2.981,3.442-2.089,4.162-13.626-16.633,2.014-4.012,21.492.962-2.14,4.263Zm-3.726-.269-8.117-.59L185,303.107Z" transform="translate(-174.692 -227.262)" fill="#05af97"></path><path id="Path_68478" data-name="Path 68478" d="M211.062,276.338a7.452,7.452,0,0,1-3.979.9,7.99,7.99,0,0,1-6.6-4.559,7.455,7.455,0,0,1-.57-4.041,9.284,9.284,0,0,1,1.643-4.133,8.4,8.4,0,0,1,3.185-2.863,5.907,5.907,0,0,1,3.818-.518l-.427,3.83a3.711,3.711,0,0,0-3.637,1.614,3.839,3.839,0,0,0-.686,2.969,4.728,4.728,0,0,0,5.033,3.474,3.839,3.839,0,0,0,2.533-1.695,3.672,3.672,0,0,0,.22-3.973l3.453-1.742a6.032,6.032,0,0,1,.834,3.73,8.306,8.306,0,0,1-1.535,4,9.285,9.285,0,0,1-3.283,3" transform="translate(-185.731 -213.259)" fill="#05af97"></path><path id="Path_68479" data-name="Path 68479" d="M226.065,232.117l15.244,13.762-2.933,3.249-5.227-4.719a5.739,5.739,0,0,1-1.673,4.575,7.837,7.837,0,0,1-3.293,2.225,6.834,6.834,0,0,1-3.835.185,9.036,9.036,0,0,1-6.081-5.489,6.831,6.831,0,0,1-.205-3.833,7.831,7.831,0,0,1,1.877-3.5,5.773,5.773,0,0,1,4.616-2.183l-1.291-1.165Zm4.252,11.1a4.781,4.781,0,0,0-4.519-4.08,3.93,3.93,0,0,0-3.7,4.1,4.78,4.78,0,0,0,4.519,4.08,3.693,3.693,0,0,0,2.705-1.3,3.656,3.656,0,0,0,1-2.8" transform="translate(-193.646 -200.577)" fill="#05af97"></path><path id="Path_68480" data-name="Path 68480" d="M251.189,207.941l9.669,11.591-3.188,2.66-1.15-1.379a5.8,5.8,0,0,1-.632,2.482,6.534,6.534,0,0,1-1.671,2.07,6.427,6.427,0,0,1-4.716,1.705,6.817,6.817,0,0,1-4.589-2.785l-5.464-6.549,3.361-2.8,5.05,6.055q2.337,2.8,4.685.841a3.287,3.287,0,0,0,1.283-2.4,4.322,4.322,0,0,0-1.218-2.949l-4.781-5.73Z" transform="translate(-203.112 -189.967)" fill="#05af97"></path><path id="Path_68481" data-name="Path 68481" d="M263.923,194.466a2.376,2.376,0,0,1-1.947-2.884,2.775,2.775,0,0,1,1.236-1.68,2.842,2.842,0,0,1,2-.541,2.157,2.157,0,0,1,1.569.971,2.378,2.378,0,0,1,.385,1.924,2.742,2.742,0,0,1-1.227,1.691,2.774,2.774,0,0,1-2.02.518m1.384,2.451,3.628-2.449,8.444,12.51-3.628,2.449Z" transform="translate(-212.97 -181.803)" fill="#05af97"></path><path id="Path_68482" data-name="Path 68482" d="M287.359,187.189a7.862,7.862,0,0,1,2.391-2.009l2,3.51q-.662.313-.88.438a4.011,4.011,0,0,0-2.038,2.374,4.248,4.248,0,0,0,.637,3.27l3.53,6.19-3.8,2.168-7.477-13.112,3.631-2.071.987,1.73a4.866,4.866,0,0,1,1.02-2.487" transform="translate(-221.665 -179.978)" fill="#05af97"></path><path id="Path_68483" data-name="Path 68483" d="M319.876,181.817,309.4,186.371a3.557,3.557,0,0,0,2.223,1.451,4.83,4.83,0,0,0,2.949-.4,5.771,5.771,0,0,0,1.777-1.155,5.06,5.06,0,0,0,1.114-1.693l3.143,1.387a7.827,7.827,0,0,1-4.738,4.722,9.844,9.844,0,0,1-4.539.888,7.291,7.291,0,0,1-3.881-1.325A7.606,7.606,0,0,1,304.874,187a7.714,7.714,0,0,1-.63-4.086,7.376,7.376,0,0,1,1.542-3.7,8.947,8.947,0,0,1,7.431-3.279,6.97,6.97,0,0,1,3.677,1.384,8.161,8.161,0,0,1,2.59,3.386q.033.077.393,1.114m-11.327-.366a3.584,3.584,0,0,0-.214,2.6l6.818-2.965a3.624,3.624,0,0,0-2.045-1.6,3.69,3.69,0,0,0-2.605.2,3.769,3.769,0,0,0-1.954,1.768" transform="translate(-231.525 -175.909)" fill="#05af97"></path></g><path id="Path_68502" data-name="Path 68502" d="M256.331,283.243a3.671,3.671,0,0,1,4.188-.717l23.9-23.9a2.458,2.458,0,0,1,3.841.478l6.819,11.376a4.907,4.907,0,0,1-.738,6l-17.06,17.06,2.506,1.66a2.463,2.463,0,0,0,3.092-.314l16.534-16.535a1.228,1.228,0,1,1,1.736,1.736L284.61,296.625a4.912,4.912,0,0,1-6.179.624l-18.818-12.428a1.225,1.225,0,0,0-1.546.157l-2.056,2.056a1.227,1.227,0,0,1-1.736-1.736Zm18.85,8.923L292.6,274.747a2.462,2.462,0,0,0,.374-3l-6.83-11.375-23.51,23.51Zm17.527,9.433a4.3,4.3,0,1,1-1.112-4.149,4.3,4.3,0,0,1,1.112,4.149m-2.848.19a1.841,1.841,0,1,0-2.6,0,1.842,1.842,0,0,0,2.6,0m11.473-11.039a4.3,4.3,0,1,1,4.15-1.112,4.3,4.3,0,0,1-4.15,1.112m-.19-2.848a1.841,1.841,0,1,0,0-2.6,1.841,1.841,0,0,0,0,2.6" transform="translate(-111.439 -113.193)" fill="#05af97"></path></g></g></g></g></g></g></svg> 